<mxfile host="app.diagrams.net" modified="2023-11-04T17:20:30.544Z" agent="Mozilla/5.0 (Windows NT 10.0; Win64; x64) AppleWebKit/537.36 (KHTML, like Gecko) Chrome/119.0.0.0 Safari/537.36 Edg/119.0.0.0" etag="6jtxBz_uo2iQoMx6t3z1" version="22.0.8" type="device">
  <diagram id="20hS2WLsx8WlXfGnhYWy" name="Page-1">
    <mxGraphModel dx="1163" dy="620" grid="1" gridSize="10" guides="1" tooltips="1" connect="1" arrows="1" fold="1" page="1" pageScale="1" pageWidth="850" pageHeight="1100" math="0" shadow="0">
      <root>
        <mxCell id="0" />
        <mxCell id="1" parent="0" />
        <mxCell id="WIBaOkkIWGMsMewcZ9B--1" value="Người dùng" style="swimlane;startSize=20;whiteSpace=wrap;html=1;" parent="1" vertex="1">
          <mxGeometry x="50" y="40" width="440" height="810" as="geometry">
            <mxRectangle x="120" y="80" width="110" height="30" as="alternateBounds" />
          </mxGeometry>
        </mxCell>
        <mxCell id="WIBaOkkIWGMsMewcZ9B--2" value="" style="ellipse;html=1;shape=startState;fillColor=#000000;strokeColor=#ff0000;direction=south;" parent="WIBaOkkIWGMsMewcZ9B--1" vertex="1">
          <mxGeometry x="10" y="90" width="30" height="30" as="geometry" />
        </mxCell>
        <mxCell id="WIBaOkkIWGMsMewcZ9B--5" value="" style="shape=line;html=1;strokeWidth=6;strokeColor=#ff0000;direction=south;" parent="WIBaOkkIWGMsMewcZ9B--1" vertex="1">
          <mxGeometry x="80" y="150" width="10" height="450" as="geometry" />
        </mxCell>
        <mxCell id="WIBaOkkIWGMsMewcZ9B--6" value="" style="edgeStyle=orthogonalEdgeStyle;html=1;verticalAlign=bottom;endArrow=open;endSize=8;strokeColor=#ff0000;rounded=0;exitX=1;exitY=0.5;exitDx=0;exitDy=0;" parent="WIBaOkkIWGMsMewcZ9B--1" source="WIBaOkkIWGMsMewcZ9B--2" edge="1">
          <mxGeometry relative="1" as="geometry">
            <mxPoint x="82" y="325" as="targetPoint" />
            <mxPoint x="200" y="60" as="sourcePoint" />
            <Array as="points">
              <mxPoint x="25" y="325" />
            </Array>
          </mxGeometry>
        </mxCell>
        <mxCell id="WIBaOkkIWGMsMewcZ9B--7" value="Chọn thêm sản phẩm vào giỏ hàng" style="rounded=1;whiteSpace=wrap;html=1;arcSize=40;fontColor=#000000;fillColor=#ffffc0;strokeColor=#ff0000;" parent="WIBaOkkIWGMsMewcZ9B--1" vertex="1">
          <mxGeometry x="120" y="170" width="120" height="40" as="geometry" />
        </mxCell>
        <mxCell id="WIBaOkkIWGMsMewcZ9B--8" value="Chọn xóa sản phẩm khỏi giỏ hàng" style="rounded=1;whiteSpace=wrap;html=1;arcSize=40;fontColor=#000000;fillColor=#ffffc0;strokeColor=#ff0000;" parent="WIBaOkkIWGMsMewcZ9B--1" vertex="1">
          <mxGeometry x="120" y="467" width="120" height="40" as="geometry" />
        </mxCell>
        <mxCell id="WIBaOkkIWGMsMewcZ9B--9" value="" style="edgeStyle=orthogonalEdgeStyle;html=1;verticalAlign=bottom;endArrow=open;endSize=8;strokeColor=#ff0000;rounded=0;" parent="WIBaOkkIWGMsMewcZ9B--1" edge="1">
          <mxGeometry relative="1" as="geometry">
            <mxPoint x="120" y="193" as="targetPoint" />
            <mxPoint x="85" y="193" as="sourcePoint" />
            <Array as="points">
              <mxPoint x="89" y="193" />
              <mxPoint x="105" y="193" />
              <mxPoint x="120" y="194" />
            </Array>
          </mxGeometry>
        </mxCell>
        <mxCell id="WIBaOkkIWGMsMewcZ9B--10" value="Nhập phân loại, số lượng sản phẩm" style="rounded=1;whiteSpace=wrap;html=1;arcSize=40;fontColor=#000000;fillColor=#ffffc0;strokeColor=#ff0000;" parent="WIBaOkkIWGMsMewcZ9B--1" vertex="1">
          <mxGeometry x="280" y="170" width="120" height="40" as="geometry" />
        </mxCell>
        <mxCell id="WIBaOkkIWGMsMewcZ9B--11" value="" style="edgeStyle=orthogonalEdgeStyle;html=1;verticalAlign=bottom;endArrow=open;endSize=8;strokeColor=#ff0000;rounded=0;exitX=1;exitY=0.5;exitDx=0;exitDy=0;entryX=0;entryY=0.5;entryDx=0;entryDy=0;" parent="WIBaOkkIWGMsMewcZ9B--1" source="WIBaOkkIWGMsMewcZ9B--7" target="WIBaOkkIWGMsMewcZ9B--10" edge="1">
          <mxGeometry relative="1" as="geometry">
            <mxPoint x="130" y="203" as="targetPoint" />
            <mxPoint x="99" y="203" as="sourcePoint" />
          </mxGeometry>
        </mxCell>
        <mxCell id="WIBaOkkIWGMsMewcZ9B--12" value="" style="edgeStyle=orthogonalEdgeStyle;html=1;verticalAlign=bottom;endArrow=open;endSize=8;strokeColor=#ff0000;rounded=0;exitX=1;exitY=0.5;exitDx=0;exitDy=0;entryX=0;entryY=0.5;entryDx=0;entryDy=0;" parent="WIBaOkkIWGMsMewcZ9B--1" target="WIBaOkkIWGMsMewcZ9B--13" edge="1">
          <mxGeometry relative="1" as="geometry">
            <mxPoint x="130" y="283" as="targetPoint" />
            <mxPoint x="240" y="270" as="sourcePoint" />
          </mxGeometry>
        </mxCell>
        <mxCell id="WIBaOkkIWGMsMewcZ9B--13" value="Nhập phân loại || số lượng mới" style="rounded=1;whiteSpace=wrap;html=1;arcSize=40;fontColor=#000000;fillColor=#ffffc0;strokeColor=#ff0000;" parent="WIBaOkkIWGMsMewcZ9B--1" vertex="1">
          <mxGeometry x="280" y="250" width="120" height="40" as="geometry" />
        </mxCell>
        <mxCell id="WIBaOkkIWGMsMewcZ9B--14" value="" style="edgeStyle=orthogonalEdgeStyle;html=1;verticalAlign=bottom;endArrow=open;endSize=8;strokeColor=#ff0000;rounded=0;exitX=0.5;exitY=1;exitDx=0;exitDy=0;" parent="WIBaOkkIWGMsMewcZ9B--1" source="t8pFGTm3d4QUy6XFGb1--2" edge="1">
          <mxGeometry relative="1" as="geometry">
            <mxPoint x="340" y="557" as="targetPoint" />
            <mxPoint x="335" y="557" as="sourcePoint" />
          </mxGeometry>
        </mxCell>
        <mxCell id="WIBaOkkIWGMsMewcZ9B--18" value="" style="edgeStyle=orthogonalEdgeStyle;html=1;verticalAlign=bottom;endArrow=open;endSize=8;strokeColor=#ff0000;rounded=0;exitX=0.119;exitY=0.125;exitDx=0;exitDy=0;exitPerimeter=0;" parent="WIBaOkkIWGMsMewcZ9B--1" edge="1">
          <mxGeometry relative="1" as="geometry">
            <mxPoint x="120" y="269.63" as="targetPoint" />
            <mxPoint x="89" y="269.63" as="sourcePoint" />
          </mxGeometry>
        </mxCell>
        <mxCell id="WIBaOkkIWGMsMewcZ9B--19" value="Chọn cập nhật sản phẩm trong giỏ hàng" style="rounded=1;whiteSpace=wrap;html=1;arcSize=40;fontColor=#000000;fillColor=#ffffc0;strokeColor=#ff0000;" parent="WIBaOkkIWGMsMewcZ9B--1" vertex="1">
          <mxGeometry x="120" y="250" width="120" height="40" as="geometry" />
        </mxCell>
        <mxCell id="WIBaOkkIWGMsMewcZ9B--20" value="" style="edgeStyle=orthogonalEdgeStyle;html=1;verticalAlign=bottom;endArrow=open;endSize=8;strokeColor=#ff0000;rounded=0;exitX=0.119;exitY=0.125;exitDx=0;exitDy=0;exitPerimeter=0;" parent="WIBaOkkIWGMsMewcZ9B--1" edge="1">
          <mxGeometry relative="1" as="geometry">
            <mxPoint x="121" y="486.28999999999996" as="targetPoint" />
            <mxPoint x="90" y="486.28999999999996" as="sourcePoint" />
          </mxGeometry>
        </mxCell>
        <mxCell id="WIBaOkkIWGMsMewcZ9B--21" value="Chọn thanh toán" style="rounded=1;whiteSpace=wrap;html=1;arcSize=40;fontColor=#000000;fillColor=#ffffc0;strokeColor=#ff0000;" parent="WIBaOkkIWGMsMewcZ9B--1" vertex="1">
          <mxGeometry x="120" y="330" width="120" height="40" as="geometry" />
        </mxCell>
        <mxCell id="WIBaOkkIWGMsMewcZ9B--22" value="Nhập thông tin thanh toán" style="rounded=1;whiteSpace=wrap;html=1;arcSize=40;fontColor=#000000;fillColor=#ffffc0;strokeColor=#ff0000;" parent="WIBaOkkIWGMsMewcZ9B--1" vertex="1">
          <mxGeometry x="280" y="330" width="120" height="40" as="geometry" />
        </mxCell>
        <mxCell id="WIBaOkkIWGMsMewcZ9B--23" value="" style="edgeStyle=orthogonalEdgeStyle;html=1;verticalAlign=bottom;endArrow=open;endSize=8;strokeColor=#ff0000;rounded=0;exitX=1;exitY=0.5;exitDx=0;exitDy=0;entryX=0;entryY=0.5;entryDx=0;entryDy=0;" parent="WIBaOkkIWGMsMewcZ9B--1" edge="1">
          <mxGeometry relative="1" as="geometry">
            <mxPoint x="280" y="349.29" as="targetPoint" />
            <mxPoint x="240" y="349.29" as="sourcePoint" />
          </mxGeometry>
        </mxCell>
        <mxCell id="WIBaOkkIWGMsMewcZ9B--24" value="" style="edgeStyle=orthogonalEdgeStyle;html=1;verticalAlign=bottom;endArrow=open;endSize=8;strokeColor=#ff0000;rounded=0;exitX=0.119;exitY=0.125;exitDx=0;exitDy=0;exitPerimeter=0;" parent="WIBaOkkIWGMsMewcZ9B--1" edge="1">
          <mxGeometry relative="1" as="geometry">
            <mxPoint x="120" y="349.28999999999996" as="targetPoint" />
            <mxPoint x="89" y="349.28999999999996" as="sourcePoint" />
          </mxGeometry>
        </mxCell>
        <mxCell id="t8pFGTm3d4QUy6XFGb1--1" value="" style="edgeStyle=orthogonalEdgeStyle;html=1;verticalAlign=bottom;endArrow=open;endSize=8;strokeColor=#ff0000;rounded=0;exitX=1;exitY=0.5;exitDx=0;exitDy=0;entryX=0;entryY=0.5;entryDx=0;entryDy=0;" edge="1" parent="WIBaOkkIWGMsMewcZ9B--1">
          <mxGeometry relative="1" as="geometry">
            <mxPoint x="280" y="486.28999999999996" as="targetPoint" />
            <mxPoint x="240" y="486.28999999999996" as="sourcePoint" />
          </mxGeometry>
        </mxCell>
        <mxCell id="t8pFGTm3d4QUy6XFGb1--2" value="Yêu cầu xác nhận xóa" style="rounded=1;whiteSpace=wrap;html=1;arcSize=40;fontColor=#000000;fillColor=#ffffc0;strokeColor=#ff0000;" vertex="1" parent="WIBaOkkIWGMsMewcZ9B--1">
          <mxGeometry x="280" y="467" width="120" height="40" as="geometry" />
        </mxCell>
        <mxCell id="t8pFGTm3d4QUy6XFGb1--3" value="Xác nhận" style="rhombus;whiteSpace=wrap;html=1;fontColor=#000000;fillColor=#ffffc0;strokeColor=#ff0000;" vertex="1" parent="WIBaOkkIWGMsMewcZ9B--1">
          <mxGeometry x="300" y="557" width="80" height="40" as="geometry" />
        </mxCell>
        <mxCell id="t8pFGTm3d4QUy6XFGb1--6" value="" style="whiteSpace=wrap;html=1;fillColor=#ffffc0;strokeColor=#ff0000;fontColor=#000000;" vertex="1" parent="WIBaOkkIWGMsMewcZ9B--1">
          <mxGeometry x="150" y="557" width="40" height="40" as="geometry" />
        </mxCell>
        <mxCell id="t8pFGTm3d4QUy6XFGb1--5" value="Hủy lệnh xóa" style="edgeStyle=orthogonalEdgeStyle;html=1;align=left;verticalAlign=top;endArrow=open;endSize=8;strokeColor=#ff0000;rounded=0;exitX=0;exitY=0.5;exitDx=0;exitDy=0;entryX=1;entryY=0.5;entryDx=0;entryDy=0;" edge="1" source="t8pFGTm3d4QUy6XFGb1--3" parent="WIBaOkkIWGMsMewcZ9B--1" target="t8pFGTm3d4QUy6XFGb1--6">
          <mxGeometry x="0.6364" y="-20" relative="1" as="geometry">
            <mxPoint x="220" y="577" as="targetPoint" />
            <mxPoint x="1" as="offset" />
          </mxGeometry>
        </mxCell>
        <mxCell id="WIBaOkkIWGMsMewcZ9B--26" value="Hệ thống" style="swimlane;startSize=20;whiteSpace=wrap;html=1;strokeColor=default;rounded=0;shadow=0;glass=0;swimlaneLine=1;" parent="1" vertex="1">
          <mxGeometry x="540" y="40" width="430" height="810" as="geometry">
            <mxRectangle x="400" y="80" width="90" height="30" as="alternateBounds" />
          </mxGeometry>
        </mxCell>
        <mxCell id="WIBaOkkIWGMsMewcZ9B--27" value="" style="ellipse;html=1;shape=endState;fillColor=#000000;strokeColor=#ff0000;" parent="WIBaOkkIWGMsMewcZ9B--26" vertex="1">
          <mxGeometry x="390" y="256" width="30" height="30" as="geometry" />
        </mxCell>
        <mxCell id="WIBaOkkIWGMsMewcZ9B--28" value="Kiểm tra" style="rhombus;whiteSpace=wrap;html=1;fontColor=#000000;fillColor=#ffffc0;strokeColor=#ff0000;" parent="WIBaOkkIWGMsMewcZ9B--26" vertex="1">
          <mxGeometry x="90" y="170" width="80" height="40" as="geometry" />
        </mxCell>
        <mxCell id="WIBaOkkIWGMsMewcZ9B--29" value="Đúng" style="edgeStyle=orthogonalEdgeStyle;html=1;align=left;verticalAlign=bottom;endArrow=open;endSize=8;strokeColor=#ff0000;rounded=0;entryX=0;entryY=0.5;entryDx=0;entryDy=0;exitX=1;exitY=0.5;exitDx=0;exitDy=0;" parent="WIBaOkkIWGMsMewcZ9B--26" source="WIBaOkkIWGMsMewcZ9B--28" target="WIBaOkkIWGMsMewcZ9B--30" edge="1">
          <mxGeometry x="-1" y="10" relative="1" as="geometry">
            <mxPoint x="130" y="330" as="targetPoint" />
            <Array as="points">
              <mxPoint x="200" y="190" />
            </Array>
            <mxPoint as="offset" />
          </mxGeometry>
        </mxCell>
        <mxCell id="WIBaOkkIWGMsMewcZ9B--30" value="Lưu sản phẩm vào giỏ hàng" style="rounded=1;whiteSpace=wrap;html=1;arcSize=40;fontColor=#000000;fillColor=#ffffc0;strokeColor=#ff0000;" parent="WIBaOkkIWGMsMewcZ9B--26" vertex="1">
          <mxGeometry x="200" y="170" width="120" height="40" as="geometry" />
        </mxCell>
        <mxCell id="WIBaOkkIWGMsMewcZ9B--31" value="Kiểm tra" style="rhombus;whiteSpace=wrap;html=1;fontColor=#000000;fillColor=#ffffc0;strokeColor=#ff0000;" parent="WIBaOkkIWGMsMewcZ9B--26" vertex="1">
          <mxGeometry x="90" y="250" width="80" height="40" as="geometry" />
        </mxCell>
        <mxCell id="WIBaOkkIWGMsMewcZ9B--33" value="Xóa sản phẩm" style="rounded=1;whiteSpace=wrap;html=1;arcSize=40;fontColor=#000000;fillColor=#ffffc0;strokeColor=#ff0000;" parent="WIBaOkkIWGMsMewcZ9B--26" vertex="1">
          <mxGeometry x="200" y="557" width="120" height="40" as="geometry" />
        </mxCell>
        <mxCell id="WIBaOkkIWGMsMewcZ9B--34" value="" style="edgeStyle=orthogonalEdgeStyle;html=1;align=left;verticalAlign=bottom;endArrow=open;endSize=8;strokeColor=#ff0000;rounded=0;exitX=1;exitY=0.5;exitDx=0;exitDy=0;" parent="WIBaOkkIWGMsMewcZ9B--26" source="WIBaOkkIWGMsMewcZ9B--30" edge="1">
          <mxGeometry x="-1" y="10" relative="1" as="geometry">
            <mxPoint x="405" y="256" as="targetPoint" />
            <mxPoint x="320" y="131" as="sourcePoint" />
            <Array as="points">
              <mxPoint x="405" y="190" />
            </Array>
            <mxPoint as="offset" />
          </mxGeometry>
        </mxCell>
        <mxCell id="WIBaOkkIWGMsMewcZ9B--35" value="" style="edgeStyle=orthogonalEdgeStyle;html=1;align=left;verticalAlign=bottom;endArrow=open;endSize=8;strokeColor=#ff0000;rounded=0;entryX=0;entryY=0.5;entryDx=0;entryDy=0;exitX=1;exitY=0.5;exitDx=0;exitDy=0;" parent="WIBaOkkIWGMsMewcZ9B--26" source="WIBaOkkIWGMsMewcZ9B--38" target="WIBaOkkIWGMsMewcZ9B--27" edge="1">
          <mxGeometry x="-1" y="10" relative="1" as="geometry">
            <mxPoint x="380" y="329.28999999999996" as="targetPoint" />
            <mxPoint x="330" y="330" as="sourcePoint" />
            <Array as="points">
              <mxPoint x="380" y="271" />
            </Array>
            <mxPoint as="offset" />
          </mxGeometry>
        </mxCell>
        <mxCell id="WIBaOkkIWGMsMewcZ9B--36" value="" style="edgeStyle=orthogonalEdgeStyle;html=1;align=left;verticalAlign=bottom;endArrow=open;endSize=8;strokeColor=#ff0000;rounded=0;exitX=1;exitY=0.482;exitDx=0;exitDy=0;exitPerimeter=0;entryX=0.5;entryY=1;entryDx=0;entryDy=0;" parent="WIBaOkkIWGMsMewcZ9B--26" source="WIBaOkkIWGMsMewcZ9B--33" target="WIBaOkkIWGMsMewcZ9B--27" edge="1">
          <mxGeometry x="-1" y="10" relative="1" as="geometry">
            <mxPoint x="410" y="300" as="targetPoint" />
            <mxPoint x="330" y="537" as="sourcePoint" />
            <Array as="points" />
            <mxPoint as="offset" />
          </mxGeometry>
        </mxCell>
        <mxCell id="WIBaOkkIWGMsMewcZ9B--37" value="Đúng" style="edgeStyle=orthogonalEdgeStyle;html=1;align=left;verticalAlign=bottom;endArrow=open;endSize=8;strokeColor=#ff0000;rounded=0;entryX=0;entryY=0.5;entryDx=0;entryDy=0;exitX=1;exitY=0.5;exitDx=0;exitDy=0;" parent="WIBaOkkIWGMsMewcZ9B--26" edge="1">
          <mxGeometry x="-1" y="10" relative="1" as="geometry">
            <mxPoint x="200" y="269.38" as="targetPoint" />
            <mxPoint x="170" y="269.38" as="sourcePoint" />
            <Array as="points">
              <mxPoint x="200" y="269.38" />
            </Array>
            <mxPoint as="offset" />
          </mxGeometry>
        </mxCell>
        <mxCell id="t8pFGTm3d4QUy6XFGb1--11" value="" style="edgeStyle=orthogonalEdgeStyle;rounded=0;orthogonalLoop=1;jettySize=auto;html=1;" edge="1" parent="WIBaOkkIWGMsMewcZ9B--26" source="WIBaOkkIWGMsMewcZ9B--38" target="WIBaOkkIWGMsMewcZ9B--30">
          <mxGeometry relative="1" as="geometry" />
        </mxCell>
        <mxCell id="WIBaOkkIWGMsMewcZ9B--38" value="Cập nhật sản phẩm trong giỏ hàng" style="rounded=1;whiteSpace=wrap;html=1;arcSize=40;fontColor=#000000;fillColor=#ffffc0;strokeColor=#ff0000;" parent="WIBaOkkIWGMsMewcZ9B--26" vertex="1">
          <mxGeometry x="200" y="250" width="120" height="40" as="geometry" />
        </mxCell>
        <mxCell id="WIBaOkkIWGMsMewcZ9B--40" value="Kiểm tra" style="rhombus;whiteSpace=wrap;html=1;fontColor=#000000;fillColor=#ffffc0;strokeColor=#ff0000;" parent="WIBaOkkIWGMsMewcZ9B--26" vertex="1">
          <mxGeometry x="90" y="330" width="80" height="40" as="geometry" />
        </mxCell>
        <mxCell id="WIBaOkkIWGMsMewcZ9B--41" value="" style="edgeStyle=orthogonalEdgeStyle;html=1;verticalAlign=bottom;endArrow=open;endSize=8;strokeColor=#ff0000;rounded=0;exitX=1;exitY=0.5;exitDx=0;exitDy=0;entryX=1;entryY=0.5;entryDx=0;entryDy=0;" parent="WIBaOkkIWGMsMewcZ9B--26" target="WIBaOkkIWGMsMewcZ9B--40" edge="1">
          <mxGeometry relative="1" as="geometry">
            <mxPoint x="220" y="380" as="targetPoint" />
            <mxPoint x="160" y="350" as="sourcePoint" />
          </mxGeometry>
        </mxCell>
        <mxCell id="WIBaOkkIWGMsMewcZ9B--25" value="Xác nhận đơn hàng" style="rounded=1;whiteSpace=wrap;html=1;arcSize=40;fontColor=#000000;fillColor=#ffffc0;strokeColor=#ff0000;" parent="WIBaOkkIWGMsMewcZ9B--26" vertex="1">
          <mxGeometry x="70" y="420" width="120" height="40" as="geometry" />
        </mxCell>
        <mxCell id="WIBaOkkIWGMsMewcZ9B--52" value="yes" style="edgeStyle=orthogonalEdgeStyle;html=1;align=left;verticalAlign=top;endArrow=open;endSize=8;strokeColor=#ff0000;rounded=0;exitX=0.5;exitY=1;exitDx=0;exitDy=0;entryX=0.5;entryY=0;entryDx=0;entryDy=0;" parent="WIBaOkkIWGMsMewcZ9B--26" source="WIBaOkkIWGMsMewcZ9B--40" target="WIBaOkkIWGMsMewcZ9B--25" edge="1">
          <mxGeometry x="-1" relative="1" as="geometry">
            <mxPoint x="130" y="450" as="targetPoint" />
            <Array as="points" />
          </mxGeometry>
        </mxCell>
        <mxCell id="t8pFGTm3d4QUy6XFGb1--13" value="" style="edgeStyle=orthogonalEdgeStyle;html=1;verticalAlign=bottom;endArrow=open;endSize=8;strokeColor=#ff0000;rounded=0;exitX=1;exitY=0.5;exitDx=0;exitDy=0;entryX=0;entryY=1;entryDx=0;entryDy=0;" edge="1" parent="WIBaOkkIWGMsMewcZ9B--26" source="WIBaOkkIWGMsMewcZ9B--25" target="WIBaOkkIWGMsMewcZ9B--27">
          <mxGeometry relative="1" as="geometry">
            <mxPoint x="230" y="460" as="targetPoint" />
            <mxPoint x="230" y="410" as="sourcePoint" />
          </mxGeometry>
        </mxCell>
        <mxCell id="WIBaOkkIWGMsMewcZ9B--42" value="" style="edgeStyle=orthogonalEdgeStyle;html=1;verticalAlign=bottom;endArrow=open;endSize=8;strokeColor=#ff0000;rounded=0;entryX=0.499;entryY=0.433;entryDx=0;entryDy=0;entryPerimeter=0;" parent="1" edge="1">
          <mxGeometry relative="1" as="geometry">
            <mxPoint x="589.6399999999999" y="269.33000000000004" as="targetPoint" />
            <mxPoint x="590" y="270" as="sourcePoint" />
          </mxGeometry>
        </mxCell>
        <mxCell id="WIBaOkkIWGMsMewcZ9B--43" value="" style="edgeStyle=orthogonalEdgeStyle;rounded=0;orthogonalLoop=1;jettySize=auto;html=1;" parent="1" source="WIBaOkkIWGMsMewcZ9B--10" edge="1">
          <mxGeometry relative="1" as="geometry">
            <mxPoint x="630" y="230" as="targetPoint" />
          </mxGeometry>
        </mxCell>
        <mxCell id="WIBaOkkIWGMsMewcZ9B--44" value="Không hợp lê" style="edgeStyle=orthogonalEdgeStyle;html=1;align=left;verticalAlign=top;endArrow=open;endSize=8;strokeColor=#ff0000;rounded=0;entryX=0.5;entryY=0;entryDx=0;entryDy=0;" parent="1" source="WIBaOkkIWGMsMewcZ9B--28" target="WIBaOkkIWGMsMewcZ9B--10" edge="1">
          <mxGeometry x="-0.7726" y="-10" relative="1" as="geometry">
            <mxPoint x="660" y="140" as="targetPoint" />
            <Array as="points">
              <mxPoint x="670" y="170" />
              <mxPoint x="390" y="170" />
            </Array>
            <mxPoint y="1" as="offset" />
          </mxGeometry>
        </mxCell>
        <mxCell id="WIBaOkkIWGMsMewcZ9B--49" value="Không hợp lệ&lt;br&gt;" style="edgeStyle=orthogonalEdgeStyle;html=1;align=left;verticalAlign=top;endArrow=open;endSize=8;strokeColor=#ff0000;rounded=0;entryX=0.5;entryY=0;entryDx=0;entryDy=0;" parent="1" source="WIBaOkkIWGMsMewcZ9B--31" target="WIBaOkkIWGMsMewcZ9B--13" edge="1">
          <mxGeometry x="-0.1338" relative="1" as="geometry">
            <mxPoint x="400" y="350" as="targetPoint" />
            <Array as="points">
              <mxPoint x="680" y="270" />
              <mxPoint x="390" y="270" />
            </Array>
            <mxPoint as="offset" />
          </mxGeometry>
        </mxCell>
        <mxCell id="WIBaOkkIWGMsMewcZ9B--50" value="" style="edgeStyle=orthogonalEdgeStyle;rounded=0;orthogonalLoop=1;jettySize=auto;html=1;" parent="1" edge="1">
          <mxGeometry relative="1" as="geometry">
            <mxPoint x="450" y="310" as="sourcePoint" />
            <mxPoint x="630" y="310" as="targetPoint" />
          </mxGeometry>
        </mxCell>
        <mxCell id="WIBaOkkIWGMsMewcZ9B--51" value="" style="edgeStyle=orthogonalEdgeStyle;rounded=0;orthogonalLoop=1;jettySize=auto;html=1;entryX=0;entryY=0.5;entryDx=0;entryDy=0;" parent="1" source="WIBaOkkIWGMsMewcZ9B--22" target="WIBaOkkIWGMsMewcZ9B--40" edge="1">
          <mxGeometry relative="1" as="geometry">
            <mxPoint x="580" y="390" as="targetPoint" />
          </mxGeometry>
        </mxCell>
        <mxCell id="WIBaOkkIWGMsMewcZ9B--53" value="Không hợp lệ&lt;br&gt;" style="edgeStyle=orthogonalEdgeStyle;html=1;align=left;verticalAlign=bottom;endArrow=open;endSize=8;strokeColor=#ff0000;rounded=0;exitX=0.5;exitY=0;exitDx=0;exitDy=0;" parent="1" source="WIBaOkkIWGMsMewcZ9B--40" edge="1">
          <mxGeometry x="-0.1609" y="20" relative="1" as="geometry">
            <mxPoint x="390" y="370" as="targetPoint" />
            <Array as="points">
              <mxPoint x="670" y="350" />
              <mxPoint x="390" y="350" />
            </Array>
            <mxPoint x="1" as="offset" />
          </mxGeometry>
        </mxCell>
        <mxCell id="t8pFGTm3d4QUy6XFGb1--4" value="Xác nhận xóa" style="edgeStyle=orthogonalEdgeStyle;html=1;align=left;verticalAlign=bottom;endArrow=open;endSize=8;strokeColor=#ff0000;rounded=0;entryX=0;entryY=0.5;entryDx=0;entryDy=0;" edge="1" source="t8pFGTm3d4QUy6XFGb1--3" parent="1" target="WIBaOkkIWGMsMewcZ9B--33">
          <mxGeometry x="-1" relative="1" as="geometry">
            <mxPoint x="710" y="587" as="targetPoint" />
          </mxGeometry>
        </mxCell>
      </root>
    </mxGraphModel>
  </diagram>
</mxfile>
